<?xml version="1.0" encoding="UTF-8"?>
<svg id="Calque_3" data-name="Calque 3" xmlns="http://www.w3.org/2000/svg" viewBox="0 0 1920 524.37">
  <defs>
    <style>
      .cls-1 {
        fill: #fff;
      }
    </style>
  </defs>
  <path class="cls-1" d="M179.96,452.76c1.38-.77,2.6-1.65,3.95-2.17,10.44-3.96,22-1.65,32.43-5.76,.27-.11,.83-.09,.92,.06,2.15,3.7,5.41,.61,8.03,1.33,1.82,.5,3.82,.7,5.41,1.61,3.57,2.05,6.71,5.63,10.46,6.35,3.34,.64,3.58,1.72,3.56,4.18,0,.15,.48,.31,.9,.55,.29-1.03,.56-2,.96-3.4,6.48,5.18,12.74,8.89,19.96,1.72,.55-.55,5.03,1.17,5.61,2.65,2.27,5.76,6.7,8.86,12.16,9.51,4.14,.49,6.51,1.69,8.03,5.44,.59,1.45,1.9,2.91,3.27,3.67,2.94,1.63,6.21,2.66,9.19,4.22,1.86,.97,3.4,2.53,5.17,3.7,2.49,1.65,5.28,2.94,7.54,4.85,2.63,2.22,4.83,3.74,6.88-.16,6.1,3.78,11.83,4.4,18.77,2.8,5.83-1.34,12.58,1.37,17.63-4.19,1.24,.32,2.63,.69,3.92,1.03q3.11-5.14,9.73-7.91c.6-.25,1.09-.88,1.7-1,5.51-1.08,11.46-.46,16.29-4.23,.08-.06,.31,.1,.47,.13,4.34,.81,8.64,1.86,13.01,2.35,5.77,.64,12.04,2.75,16.12-3.92,.57-.93,1.41-1.7,2.13-2.54,.29,.52,.58,1.04,.88,1.57,1.82-.55,4.38-.54,5.32-1.76,2.47-3.22,4.36-4.14,8.58-2.3,2.84,1.24,8.38,3.83,10.08-1.96,1.44-4.87,4.05-8.17,7.32-11.98,5.21-6.05,10.09-9.37,18.16-7.39,3.67,.9,6.43-.88,7.37-4.88,.25-1.07,.94-2.04,1.63-3.5,3.77,3.47,5.84,1.63,7.71-1.84,1.77-3.29,4.1-4.16,7.75-1.85,2.97,1.88,6.59,2.77,9.99,3.91,2.98,1,5.9,1.01,8.54,3.96,1.79,2,6.92,1.92,10.3,1.34,3.05-.52,5.17-4.21,9.1-3.75,.54,.06,1.88-2.4,1.99-3.76,.82-10.12,1.41-20.25,2.13-30.38,.17-2.43,0-5.55,3.28-5.73,2.15-.12,4.8,.7,6.49,2.03,4.41,3.47,8.95,4.85,14.68,4.31,5.66-.54,11.92-.98,15.16,5.71,9.43-2.1,17.89,1.43,26.65,3.15,2.79,.55,3.98,2.19,5.94,3.35,6.44,3.81,12.49,9.55,21.31,5.56,3.27-1.48,7.28-1.71,10.97-1.79,7.44-.17,13.01,5.54,20.47,6.78,5.13,.86,9.67,7.53,13.65,12.29,4.06,4.85,6.87,5.99,11.53,2.02,3.59-3.06,7.3-2.79,10.22-.1,4.21,3.88,8.95,2.75,13.38,2.11,2.81-.4,4.83-1.06,7.14,1.22,1.04,1.02,3.33,1.56,4.79,1.21,2.62-.63,4.96-2.38,7.57-3.15,3.68-1.09,7.11-2.38,11.27,.05,7.5,4.38,15.2,5.25,23.04-.51,3.12-2.29,7.69-2.57,11.54-3.93,6.26-2.21,13.75-.16,19.12-6.02,1.27-1.39,6.31-1.77,7.17-.68,3.37,4.25,8.21,4.85,12.59,6.66,2.66,1.1,4.53,1,6.14-1.96,1.54-2.84,3.87-5.26,6.01-8.08,.75,.18,1.7,.6,2.64,.6,5.29,.03,10.87,5.25,15.87-.82,.25-.3,.93-.44,1.36-.35,3.93,.8,7.9,1.46,11.73,2.59,1.86,.55,4.47,3.3,5,2.88,4.4-3.53,12.78,2.73,15.73-6.93,.81,1.39,1.61,2.77,2.29,3.94,9.08-4.82,18.31-7.03,28.05-7.44,3.37-.46,6.73-.91,10.1-1.37,.04,.43,.09,.86,.13,1.29,1.92-1.39,3.84-2.77,6.47-4.67,.43,5.06,3.39,3.44,5.82,2.85,4.29-1.03,8.02-1.77,11.64,2.43,2.35,2.72,6.26,5.13,9.75,5.57,4.32,.55,6.36,1.87,7.09,6.16,.2-1.36,.39-2.73,.68-4.73,8.63,6.99,16.94,10.87,24.89-.26,1.4,1.89,2.36,3.17,3.14,4.22,.45-.81,.97-1.75,1.63-2.94,1.29,3.11,2.31,5.58,3.33,8.06,.17-.6,.34-1.19,.51-1.79,5.79-1.18,11.65-3.59,17.36-3.27,9.26,.53,18.39,3.12,27.64,4.28,4.25,.53,8.93,.5,11.48-4.41,.31-.59,1.75-1.08,2.48-.9,4.03,1.02,7.49,.31,11.32-1.54,3.39-1.64,7.62-1.51,11.44-2.35,1.24-.27,2.89-.85,3.43-1.81,3.21-5.76,7.71-3.73,11.89-1.97,3.38,1.42,6.36,3.79,9.72,5.29,6.46,2.9,12.54,.34,18.77-1.51,6.89-2.05,14.42-3.25,20.4,1.55,5.9,4.75,10.9,4.56,16.58,.49,.61-.44,1.66-.64,2.39-.46,5.4,1.32,9.35-.64,11.8-5.23,6.67,1.47,13.03,2.7,11.73,11.53,5.55,.36,10.73-.11,15.43,1.16,10.78,2.91,20.93,4.02,29.9-4.41,.45-.43,1.2-.54,1.8-.82,3.96-1.88,7.95-3.71,11.86-5.68,3.05-1.54,5.83-3.89,9.04-4.78,10.54-2.94,19.61,2.78,29.19,5.53,1.42,.41,3.28,.11,4.69-.47,3.28-1.35,6.35-4.25,9.61-4.4,6.04-.27,12.14,1.14,18.23,1.52,2.17,.13,4.39-.75,6.6-1.07,2.48-.36,5.57-1.67,7.36-.68,4.74,2.62,8.88,5.43,14.83,5.85,4.76,.34,9.63,3.28,13.87,5.99,6.61,4.22,13.39,.46,20,1.32,.51,.07,1.07-.72,1.67-.9,3.15-.92,6.27-2.05,9.49-2.56,3.16-.5,6.17,.56,9.64-1.3,2.94-1.58,6.8-4.39,11.01-1.93,.76,.44,1.96,.41,2.9,.24,6.97-1.26,14.39,2.61,21.11-1.81,.45-.3,1.3,.07,1.96,0,7.37-.87,14.6-2.12,20.47-7.29,.67-.59,1.92-.56,2.91-.74,4.68-.81,9.51-1.1,14-2.5,5.63-1.76,10.98-4.42,16.46-6.68,.14-.06,.37-.07,.48,0,4.88,3.18,9.43-1.79,14.29-.6,1.38,.34,3-.26,4.5-.53,2.59-.47,5.87-2.29,7.61-1.32,7.14,4.02,14.06,.35,20.96,.07,3.57-.14,6.95-3.6,10.59-4.02,4.14-.48,6.9-1.44,8.06-5.67,.28-1.01,1.4-1.81,2.16-2.68,6.58-7.56,15.66-6.12,22.24-2.66,7.42,3.91,11.27-4.16,17.16-2.2,3.18-6,8.87-3.88,13.05-2.86,4,.98,5.43-.22,7.69-2.79,2.81-3.19,6.56-5.83,11.08-3.64,3.01,1.46,5.19,.96,7.81-.62,3.43-2.08,6.93-3.61,10.9-.54,2.53,1.95,4.76,.38,7.05-1.42,1.98-1.56,4.64-2.26,7-3.34,1.91-.14,3.3-1.25,4.82-1.5,3.89-.65,7.51-1.43,10.62-4.32,1.39-1.29,3.94-1.6,6.02-1.83,2.4-.26,5.1,.77,7.24,.02,7.2-2.51,14.24-5.52,21.28-8.46,1-.42,1.84-1.44,2.53-2.35,4.68-6.21,11.48-6.71,18.41-7.01,2.74-.12,5.79,.26,8.16-.8,7.17-3.22,7.25-3.24,12.27,2.56,1.95,2.26,5.72,5.79,7.12,5.18,4.33-1.88,7.07,.02,10.06,2.06,2.17,1.48,3.94,3.6,6.22,4.83,6.05,3.27,12.24,6.26,18.45,9.22,.96,.46,2.31,.39,3.41,.18,4.37-.82,8.81-1.47,13.04-2.78,4.68-1.44,9.82-.58,14.09-4.58,4.29-4.02,7.65-10.61,15.58-8.9,.67,.15,1.85-2.1,2.82-3.22,.73-.85,1.35-2.14,2.26-2.41,4.28-1.29,2.85-3.93,1.99-6.7-.59-1.88-.82-3.89-.99-5.86-.13-1.52,.09-3.08,.12-4.62,.02-1.26-.43-2.71,.04-3.74,1.26-2.75,2.89-5.34,4.41-7.97,2.38-4.13,6.38-8.1,6.77-12.4,.49-5.4,4.37-7.83,6.69-11.44,2.25-3.51,3.07-6.39,1.66-10.25-.57-1.57-.56-3.55-.2-5.22,1.19-5.6,2.88-11.09,3.9-16.72,.4-2.21,.18-5.02-.89-6.92-3.58-6.37-7.81-12.39-11.52-18.69-1.44-2.45-2.27-5.28-3.21-8-1.74-5.06-2.64-10.56-5.2-15.14-3.09-5.52-5.01-10.93-4.27-17.22,.03-.27-.25-.58-.44-1-1.1,.25-2.22,.5-5.05,1.14,1.57-4.69,2.74-8.18,4.14-12.34-1.07-.41-2.8-1.19-4.62-1.73-4.12-1.23-10.3-9.22-9.46-13.28,.61-2.93-.4-4.19-2.54-5.65-1.57-1.06-3.21-2.52-3.97-4.19-2.15-4.71-3.86-9.61-5.73-14.43,2.07-2.79,4.17-5.6,6.27-8.43-5.17-2.51-5.56-8.58-.47-12,5.55-3.74,6.11-9.48,5.11-14.71-.56-2.94-4.79-7.22-7.49-7.31-6.11-.21-9.67-3.82-13.91-6.85-.68-.48-1.57-.75-2.4-.92-6.7-1.43-13.41-2.82-20.11-4.22-1.99-.41-4.41-1.68-5.91-.99-3.83,1.75-6.42,.5-9.59-1.54-2.08-1.34-5.14-1.68-7.74-1.58-3.61,.13-7.19,1.07-10.78,1.68-3.66,.62-7.32,1.27-10.34,1.79-.93-.63-2.01-1.91-3.27-2.13-6.06-1.03-12.36-3.1-18.21-2.28-6.61,.93-11.87-.65-17.63-3.02-2.12-.87-5.47,1.69-8.01,1.25-5.04-.86-9.9-2.74-14.86-4.12-2.5-.7-5.31-.73-7.52-1.91-4.37-2.35-12.77-2.09-16.63,.82-1.28-.95-2.34-2.26-3.65-2.6-2.05-.53-4.26-.36-6.4-.56-5.43-.49-10.86-1.07-16.3-1.51-2.02-.16-4.38,.65-6.04-.13-7.67-3.58-15.49-.74-23.21-1.02-.3-.01-.73,.02-.89,.2-2.87,3.26-5.89,6.41-8.51,9.86-4.19,5.53-10.16,5.85-13.7,.5-1.47,3.93-7.23,5.67-10.64,3.41-1.35-.89-3.09-1.19-4.66-1.76l-.55,1.04c-.48-.92-.95-1.84-.86-1.66-5.85,1.77-11.22,3.4-15.51,4.7-2.83-3.77-4.91-7.09-8.35-10.11-4.22-3.7-8.22-3.05-12.45-2.42-3.87,7.5-2.36,13.87,3.39,19.13-1.22,2.41-1.82,4.8-1.48,7.04,1.11,7.24-.42,10.4-7.25,12.91-3.42,1.26-7.05,1.97-10.51,3.14-1.84,.62-3.92,1.31-5.2,2.63-6.31,6.51-14.39,8.44-22.87,8.54-6.41,.08-12.83,1.5-18.31-5.51-3.09-3.96-9.65-5.23-13.48-10.43-2.07-2.8-7.04-6.79-12.65-4.94-.45,.15-1.4-.76-1.93-1.35-1.85-2.05-3.62-4.17-5.82-6.73-2.46,1.24-5.09,2.58-8.39,4.24-.88-.76-2.32-1.93-3.68-3.18-1.89-1.75-3.48-4.45-6.45-1.35-.46,.48-1.64,.65-2.33,.44-2.49-.75-4.27-.69-5.65,2.11-.43,.88-2.99,.9-4.59,.97-4.17,.18-8.49-.51-12.48,.36-7.44,1.63-14.2,6.03-22.41,4.67-3.67-.61-7.61-.42-11.29,.18-3.48,.57-6.73,2.51-10.21,3.22-6.18,1.28-12.45,2.09-18.36,3.04-2.7-.4-5.4-1.14-8.09-1.12-3.39,.03-6.78,.95-10.17,.98-2.98,.03-6.23-1.57-8.9-.82-7.51,2.12-14.8,4.34-22.79,2.71-2.1-.43-4.79,.27-6.76,1.31-6.51,3.44-12.96,1.79-18.32-1.44-6.87-4.13-12.57-2.41-18.36,1.09-3.27,1.98-5.71,5.75-9.14,6.98-7.25,2.59-14.99,3.89-22.74,2.91-4.63-.59-9.06-2.85-13.68-3.27-7.83-.72-15.8-1.3-23.6-.64-11.64,.98-23.23,2.84-34.76,4.81-6.51,1.11-12.77,4.04-19.29,4.62-7.1,.64-14.37-.88-21.54-.7-5,.13-8.7-3.79-14.43-2.44-8.5,2.01-17.55,2.04-26.38,2.24-4.69,.11-9.84-.23-14.02-2.09-8.91-3.96-17.32-9.06-25.96-13.63-2.79-1.47-5.56-3.12-8.54-4-1.72-.51-3.91,.84-5.77,.55-6.46-1.01-12.82-2.84-19.31-3.42-4.1-.37-8.82-.03-12.43,1.71-6.43,3.1-11.98,8-18.37,11.23-6.11,3.09-12.77,5.1-19.25,7.4-4.7,1.67-9.45,3.97-14.28,4.28-4.37,.28-8.01,7.66-13.03,1.52-.14-.17-1.38,.77-2.16,.9-3.66,.61-5.59,2.26-6.53,6.29-.51,2.18-3.92,4.15-6.44,5.29-4.98,2.26-10.41,2.94-14.19,8.04-3.72,5.02-12.23,5.07-17.3,1.62-.99-.68-3.01-.98-3.94-.43-4.99,2.94-6.55,2.41-10.59-1.39-2.41-2.27-6.09-3.23-9.25-4.66-2.52-1.14-6.4-1.38-7.45-3.26-3.55-6.36-8.97-9.92-15.25-12.72-.29-.13-.46-.49-.74-.66-4.75-3.03-8.31-8.57-15.33-6.9-1.24,.3-2.98-.92-4.32-1.71-5.22-3.1-10.75-5.49-16.67-2.78-5.64,2.58-10.76,6.29-16.39,8.9-2.75,1.27-6.16,1.07-9.22,1.74-1.44,.32-2.79,1.1-4.15,1.73-2.84,1.32-5.68,3.77-8.5,3.74-3.49-.03-7.01-1.99-10.42-3.37-1.13-.45-1.94-1.67-2.88-2.53-1.15,.62-2.29,1.23-3.4,1.83-.88-1.18-1.62-2.17-2.73-3.66-5.36,7.23-10.76,12.39-20.69,11.62-7.98-.61-15.89-.01-23.9-3.82-2.73,1.27-6.06,3-9.54,4.34-1.04,.4-3.15,.16-3.67-.57-2.54-3.59-4.52-2.57-7.18-.06-1.58,1.48-3.92,2.51-6.08,2.96-6.46,1.34-12.99,2.29-19.52,3.39-.11-1.93-.2-3.65-.23-4.16-4.65-1.02-8.49-1.81-12.31-2.73-7.52-1.82-14.78-.83-20.49,4.24-2.83,2.51-4.98,2.69-8.39,2.65-7.62-.1-15.27,.6-22.85,1.49-2.76,.32-5.3,2.96-8.01,3.1-6.99,.35-14.31-1.37-19.34,5.48-6.86-9.06-14.96-13-25.91-12.88-5.69,.07-5.67,2.23-6.04,6.15-.21,2.19-1.5,4.27-2.3,6.4-.49-.1-.99-.19-1.48-.29-.69-2.68-1.3-5.38-2.1-8.03-2.25-7.52-.62-16.68-9.29-21.53-1.43-.8-8.1-1.78-9.22-.57-4.38,4.73-12.26,3.13-14.87-3-2.37-5.6-6.27-6.88-10.26-4.36-2.33-1.12-4.02-1.93-5.52-2.65-.78-1.7-1.68-3.67-3.19-6.94-1.72,4.45-2.79,7.21-3.86,9.98-1.43-12.39-10-9.63-17.78-9.08,0,1.1,.44,2.53-.09,3.3-1.24,1.79-2.94,3.27-4.45,4.87-1.51-2.23-3.02-.5-4.7-.22-3.49,.58-6.8-1.73-10.84-.16-1.36,.53-5.23-.49-7.48,.76-4.04,2.25-7.73,5.12-11.77,7.87-.94-.77-1.94-2.07-3.25-2.55-2.44-.9-5.06-1.75-7.59-1.7-.9,.02-1.45,3.06-2.69,4.1-4.05,3.44-8.28,6.67-12.62,9.75-.49,.35-2.09-.82-3.16-1.32-1.52-.71-3.47-2.44-4.46-1.99-4.19,1.89-7.53,1.25-10.38-2.4-4.61,7.74-11.49,3.46-17.81,3.97,.57,7.72-6.56,5.38-10.39,7.82-.19-1.06-.35-1.96-.68-3.88-.48,2.25-.74,3.48-1.1,5.15-5.01-1.42-8.71-.86-10.86,4.73-.59,1.52-4.58,4.93-7.89,1.44-2.16-2.27-4.17-4.69-6.34-7.15-6.49,5.68-11.87,3.69-17.44,.24-3.75-2.32-8.17-3.18-11.69,.19-2.6,2.49-4.33,5.9-6.34,8.74-1.77-1.12-3.55-2.24-5.99-3.78-.51,3.36-.87,5.96-1.32,8.54-.73,4.27-5.36,6-8.76,3.64-.96-.67-2.87,.03-4.34,.1l-.22,1.58c-1.03-.98-2.06-1.97-3.07-2.93-.42,.95-.66,2.2-1.38,3.01-4.93,5.51-10.05,10.85-14.87,16.45-.95,1.1-.97,3.06-1.23,4.65-.37,2.28-.24,4.7-.95,6.85-.44,1.34-2.3,3.42-3.06,3.24-3.97-.94-7.95-2.17-11.56-4.02-1.32-.67-1.62-3.33-2.38-5.08-.46,.06-.92,.12-1.38,.18-.29,3.34-.42,6.7-.89,10.01-.8,5.59-5.4,8.61-10.55,7.11-3.28,7.39-3.31,7.18-11.25,8.32-2.24,.32-4.21,2.39-6.38,3.5-2.03,1.04-4.09,2.13-6.27,2.69-1.58,.41-3.68-.62-5,.05-3.57,1.82-5.63,1.18-7.15-2.57-.31-.77-2.34-1.32-3.48-1.18-2.61,.32-5.16,1.14-7.94,1.8-1-3.2-1.8-5.8-2.61-8.4-.42-.08-.84-.16-1.26-.24-.41,2.46-.76,4.94-1.26,7.38-.25,1.22-.43,2.88-1.26,3.46-2.05,1.44-4.47,2.37-6.86,3.57l-1.52-4.24c-1.57,.67-2.9,1.24-4.3,1.84-.17-4.49-5.81-8.61-10.01-7.29-5.13,1.6-10.09,3.74-15.25,5.18-2.66,.74-6.06,1.44-8.33,.41-3.46-1.57-5.58-.54-7.48,1.75-3.36,4.02-6.43,8.28-9.39,12.13,1.62,1.56,3.22,2.54,4.01,3.97,2.65,4.82-1.02,7.63-4,10.2-6.24,5.38-6.89,8.15-3.77,15.72,.84,2.04,1.34,5.55,.22,6.83-3.68,4.22-.89,7.13,.39,9.38-.62,2.71-1.96,5.06-1.28,6.13,2.71,4.29,6.06,8.18,9.17,12.21,.92,1.2,2.49,2.33,2.64,3.62,.5,4.45,.69,8.96,.64,13.45-.05,4.27-.99,8.57-.74,12.81,.28,4.74,2.07,8.88,6.48,11.82,1.31,.87,1.25,4.08,1.46,6.25,.16,1.64-1.01,4-.24,4.88,2.56,2.94,3.37,6.17,3.67,9.89,.24,2.94,1.6,5.79,1.83,8.73,.63,7.81,3,15.76-2.6,23.07-2.12,2.77-3.26,6.23-1.36,10.2,1.78,3.73,2.78,7.88,3.73,11.94,.36,1.55-1.06,3.61-.52,5,3.2,8.33-2.86,13-6.53,18.48,1.34,3.37,3.61,6.79,3.88,10.36,.31,4.08,2.68,5.09,5.41,4.92,3.09-.19,6.1-1.65,9.13-2.6,3.45-1.09,6.86-2.33,10.34-3.32,5.73-1.63,12.23,.04,17.38-4.66,1.04-.95,5.07,.09,6.8,1.41,8.63,6.58,12.99,6.04,18.93-2.96,.17-.25,.51-.39,.78-.58,5.42,.04,10.28,4.14,16.53,.47,2.63-1.54,8.12,2.22,12.41,2.96,3.89,.67,7.93,.57,11.9,.57,.43,0,.84-1.65,1.28-2.53,.22-.43,.48-.83,.89-1.55,1.31,1.25,2.2,2.1,3.15,3.01Z"/>
  <path d="M179.96,452.76c-.95-.91-1.84-1.76-3.15-3.01-.41,.71-.67,1.12-.89,1.55-.44,.88-.86,2.53-1.28,2.53-3.97,0-8.01,.1-11.9-.57-4.29-.73-9.78-4.5-12.41-2.96-6.25,3.67-11.11-.42-16.53-.47-.26,.19-.61,.33-.77,.58-5.93,9.01-10.3,9.55-18.93,2.96-1.73-1.32-5.77-2.36-6.8-1.41-5.15,4.7-11.65,3.03-17.38,4.66-3.48,.99-6.89,2.23-10.34,3.32-3.03,.95-6.04,2.41-9.13,2.6-2.73,.17-5.1-.84-5.41-4.92-.27-3.57-2.54-6.99-3.88-10.36,3.67-5.48,9.73-10.16,6.53-18.48-.53-1.39,.88-3.45,.52-5-.94-4.06-1.94-8.21-3.73-11.94-1.9-3.97-.76-7.43,1.36-10.2,5.6-7.31,3.23-15.26,2.6-23.07-.24-2.94-1.6-5.79-1.83-8.73-.3-3.72-1.11-6.95-3.67-9.89-.76-.88,.41-3.24,.24-4.88-.21-2.17-.15-5.37-1.46-6.25-4.41-2.94-6.2-7.07-6.48-11.82-.25-4.24,.69-8.53,.74-12.81,.05-4.48-.14-9-.64-13.45-.14-1.29-1.71-2.42-2.64-3.62-3.11-4.04-6.45-7.93-9.17-12.21-.68-1.08,.65-3.42,1.28-6.13-1.29-2.25-4.07-5.16-.39-9.38,1.12-1.29,.62-4.79-.22-6.83-3.11-7.57-2.46-10.33,3.77-15.72,2.98-2.57,6.65-5.38,4-10.2-.78-1.43-2.39-2.41-4.01-3.97,2.96-3.85,6.03-8.11,9.39-12.13,1.91-2.28,4.02-3.32,7.48-1.75,2.27,1.03,5.67,.33,8.33-.41,5.17-1.44,10.13-3.58,15.25-5.18,4.2-1.31,9.85,2.81,10.01,7.29,1.41-.6,2.74-1.17,4.3-1.84l1.52,4.24c2.4-1.2,4.81-2.13,6.86-3.57,.83-.58,1.01-2.24,1.26-3.46,.5-2.44,.85-4.92,1.26-7.38,.42,.08,.84,.16,1.26,.24,.81,2.6,1.62,5.2,2.61,8.4,2.78-.66,5.33-1.48,7.94-1.8,1.14-.14,3.17,.41,3.48,1.18,1.52,3.75,3.58,4.39,7.15,2.57,1.32-.67,3.43,.35,5-.05,2.18-.56,4.25-1.65,6.27-2.69,2.17-1.11,4.13-3.18,6.38-3.5,7.94-1.15,7.97-.93,11.25-8.32,5.15,1.5,9.76-1.52,10.55-7.11,.47-3.31,.61-6.67,.89-10.01,.46-.06,.92-.12,1.38-.18,.77,1.75,1.07,4.41,2.38,5.08,3.61,1.85,7.6,3.08,11.56,4.02,.76,.18,2.62-1.9,3.06-3.24,.71-2.15,.58-4.57,.95-6.85,.26-1.59,.29-3.56,1.23-4.65,4.82-5.6,9.94-10.94,14.87-16.45,.72-.81,.96-2.05,1.38-3.01,1.01,.96,2.04,1.94,3.07,2.93l.22-1.58c1.47-.07,3.38-.76,4.34-.1,3.41,2.36,8.03,.62,8.76-3.64,.44-2.58,.8-5.18,1.32-8.54,2.44,1.54,4.22,2.66,5.99,3.78,2.01-2.85,3.74-6.25,6.34-8.74,3.52-3.37,7.94-2.51,11.69-.19,5.58,3.45,10.95,5.44,17.44-.24,2.17,2.46,4.18,4.88,6.34,7.15,3.31,3.49,7.31,.08,7.89-1.44,2.15-5.59,5.85-6.15,10.86-4.73,.36-1.67,.62-2.9,1.1-5.15,.34,1.91,.49,2.81,.68,3.88,3.83-2.44,10.96-.1,10.39-7.82,6.32-.52,13.2,3.76,17.81-3.97,2.85,3.65,6.18,4.28,10.38,2.4,.99-.44,2.94,1.29,4.46,1.99,1.07,.5,2.66,1.67,3.16,1.32,4.33-3.07,8.57-6.31,12.62-9.75,1.23-1.05,1.78-4.08,2.69-4.1,2.53-.05,5.15,.8,7.59,1.7,1.3,.48,2.3,1.78,3.25,2.55,4.04-2.75,7.73-5.63,11.77-7.87,2.25-1.25,6.12-.23,7.48-.76,4.04-1.57,7.35,.73,10.84,.16,1.68-.28,3.2-2.01,4.7,.22,1.51-1.6,3.21-3.08,4.45-4.87,.53-.76,.09-2.19,.09-3.3,7.77-.55,16.35-3.3,17.78,9.08,1.07-2.77,2.14-5.53,3.86-9.98,1.51,3.28,2.41,5.24,3.19,6.94,1.51,.72,3.2,1.53,5.52,2.65,3.99-2.51,7.89-1.24,10.26,4.36,2.6,6.14,10.48,7.73,14.87,3,1.12-1.21,7.79-.23,9.22,.57,8.67,4.85,7.03,14.01,9.29,21.53,.79,2.65,1.4,5.35,2.1,8.03,.49,.1,.99,.19,1.48,.29,.8-2.13,2.09-4.21,2.3-6.4,.37-3.92,.35-6.08,6.04-6.15,10.95-.13,19.05,3.81,25.91,12.88,5.03-6.85,12.36-5.13,19.34-5.48,2.71-.14,5.25-2.77,8.01-3.1,7.58-.89,15.24-1.58,22.85-1.49,3.42,.04,5.56-.13,8.39-2.65,5.72-5.07,12.97-6.06,20.49-4.24,3.82,.92,7.66,1.7,12.31,2.73,.03,.51,.12,2.24,.23,4.16,6.53-1.11,13.06-2.06,19.52-3.39,2.16-.45,4.5-1.47,6.08-2.96,2.66-2.51,4.64-3.53,7.18,.06,.52,.73,2.63,.97,3.67,.57,3.48-1.34,6.82-3.07,9.54-4.34,8.01,3.81,15.93,3.2,23.9,3.82,9.92,.76,15.33-4.39,20.69-11.62,1.11,1.49,1.85,2.48,2.73,3.66,1.11-.6,2.25-1.21,3.4-1.83,.94,.86,1.76,2.08,2.88,2.53,3.41,1.37,6.93,3.33,10.42,3.37,2.82,.03,5.66-2.42,8.5-3.74,1.36-.63,2.71-1.42,4.15-1.73,3.06-.67,6.48-.47,9.22-1.74,5.63-2.61,10.75-6.32,16.39-8.9,5.93-2.71,11.45-.32,16.67,2.78,1.34,.8,3.08,2.01,4.32,1.71,7.02-1.67,10.57,3.87,15.33,6.9,.28,.18,.45,.53,.74,.66,6.28,2.8,11.7,6.36,15.25,12.72,1.05,1.88,4.93,2.13,7.45,3.26,3.16,1.43,6.84,2.39,9.25,4.66,4.04,3.81,5.6,4.34,10.59,1.39,.94-.55,2.95-.25,3.94,.43,5.07,3.45,13.58,3.4,17.3-1.62,3.78-5.1,9.22-5.78,14.19-8.04,2.52-1.15,5.94-3.12,6.44-5.29,.94-4.03,2.86-5.68,6.53-6.29,.78-.13,2.03-1.07,2.16-.9,5.02,6.14,8.66-1.24,13.03-1.52,4.84-.31,9.58-2.61,14.28-4.28,6.48-2.3,13.15-4.31,19.25-7.4,6.39-3.23,11.94-8.13,18.37-11.23,3.61-1.74,8.33-2.08,12.43-1.71,6.48,.58,12.85,2.41,19.31,3.42,1.86,.29,4.05-1.05,5.77-.55,2.98,.88,5.76,2.53,8.54,4,8.64,4.57,17.04,9.67,25.96,13.63,4.18,1.85,9.33,2.2,14.02,2.09,8.83-.2,17.88-.23,26.38-2.24,5.73-1.36,9.43,2.56,14.43,2.44,7.17-.18,14.44,1.34,21.54,.7,6.51-.59,12.78-3.51,19.29-4.62,11.53-1.97,23.12-3.83,34.76-4.81,7.8-.66,15.77-.08,23.6,.64,4.62,.42,9.05,2.69,13.68,3.27,7.75,.99,15.49-.32,22.74-2.91,3.43-1.23,5.87-5,9.14-6.98,5.79-3.5,11.49-5.22,18.36-1.09,5.36,3.22,11.81,4.87,18.32,1.44,1.97-1.04,4.66-1.73,6.76-1.31,7.99,1.63,15.28-.6,22.79-2.71,2.67-.75,5.92,.85,8.9,.82,3.39-.03,6.78-.95,10.17-.98,2.69-.02,5.39,.72,8.09,1.12,5.92-.96,12.19-1.77,18.36-3.04,3.48-.72,6.72-2.65,10.21-3.22,3.69-.6,7.63-.79,11.29-.18,8.21,1.36,14.96-3.04,22.41-4.67,3.99-.87,8.32-.19,12.48-.36,1.6-.07,4.16-.09,4.59-.97,1.39-2.8,3.16-2.86,5.65-2.11,.69,.21,1.87,.03,2.33-.44,2.97-3.1,4.56-.4,6.45,1.35,1.36,1.26,2.8,2.42,3.68,3.18,3.3-1.67,5.94-3,8.39-4.24,2.19,2.55,3.96,4.68,5.82,6.73,.53,.59,1.48,1.5,1.93,1.35,5.61-1.85,10.58,2.13,12.65,4.94,3.83,5.2,10.39,6.47,13.48,10.43,5.48,7.01,11.89,5.59,18.31,5.51,8.48-.11,16.56-2.04,22.87-8.54,1.28-1.32,3.37-2.01,5.2-2.63,3.46-1.17,7.08-1.88,10.51-3.14,6.83-2.51,8.36-5.67,7.25-12.91-.34-2.24,.26-4.63,1.48-7.04-5.75-5.26-7.26-11.63-3.39-19.13,4.23-.63,8.23-1.28,12.45,2.42,3.45,3.02,5.52,6.35,8.35,10.11,4.29-1.3,9.65-2.92,15.51-4.7-.09-.18,.38,.74,.86,1.66l.55-1.04c1.56,.57,3.31,.86,4.66,1.76,3.41,2.26,9.17,.52,10.64-3.41,3.55,5.35,9.51,5.03,13.7-.5,2.62-3.45,5.64-6.6,8.51-9.86,.16-.19,.59-.21,.89-.2,7.72,.27,15.54-2.56,23.21,1.02,1.67,.78,4.02-.04,6.04,.13,5.44,.44,10.86,1.02,16.3,1.51,2.14,.19,4.36,.03,6.4,.56,1.31,.34,2.36,1.64,3.65,2.6,3.86-2.91,12.26-3.17,16.63-.82,2.21,1.19,5.02,1.22,7.52,1.91,4.96,1.38,9.82,3.27,14.86,4.12,2.54,.43,5.89-2.13,8.01-1.25,5.76,2.37,11.02,3.95,17.63,3.02,5.86-.82,12.15,1.24,18.21,2.28,1.26,.21,2.34,1.5,3.27,2.13,3.02-.53,6.68-1.17,10.34-1.79,3.59-.61,7.17-1.55,10.78-1.68,2.59-.09,5.65,.25,7.74,1.58,3.18,2.04,5.76,3.3,9.59,1.54,1.5-.69,3.92,.58,5.91,.99,6.71,1.39,13.42,2.78,20.11,4.22,.83,.18,1.73,.44,2.4,.92,4.24,3.03,7.8,6.64,13.91,6.85,2.7,.09,6.93,4.37,7.49,7.31,.99,5.22,.44,10.97-5.11,14.71-5.08,3.42-4.7,9.49,.47,12-2.1,2.83-4.2,5.64-6.27,8.43,1.88,4.82,3.59,9.73,5.73,14.43,.76,1.67,2.4,3.13,3.97,4.19,2.14,1.45,3.15,2.72,2.54,5.65-.84,4.05,5.33,12.05,9.46,13.28,1.81,.54,3.55,1.32,4.62,1.73-1.4,4.17-2.57,7.65-4.14,12.34,2.82-.64,3.94-.89,5.05-1.14,.19,.42,.47,.73,.44,1-.74,6.29,1.19,11.7,4.27,17.22,2.56,4.58,3.46,10.08,5.2,15.14,.93,2.72,1.76,5.55,3.21,8,3.71,6.31,7.93,12.32,11.52,18.69,1.07,1.9,1.29,4.71,.89,6.92-1.02,5.62-2.71,11.12-3.9,16.72-.35,1.67-.37,3.65,.2,5.22,1.41,3.85,.6,6.73-1.66,10.25-2.31,3.61-6.2,6.04-6.69,11.44-.39,4.3-4.39,8.27-6.77,12.4-1.52,2.63-3.15,5.22-4.41,7.97-.47,1.04-.02,2.48-.04,3.74-.02,1.54-.25,3.09-.12,4.62,.17,1.97,.41,3.98,.99,5.86,.86,2.77,2.29,5.41-1.99,6.7-.91,.28-1.53,1.57-2.26,2.41-.96,1.12-2.14,3.37-2.82,3.22-7.93-1.71-11.29,4.88-15.58,8.9-4.26,3.99-9.41,3.13-14.09,4.58-4.23,1.31-8.67,1.96-13.04,2.78-1.1,.21-2.45,.27-3.41-.18-6.2-2.96-12.4-5.95-18.45-9.22-2.28-1.23-4.05-3.35-6.22-4.83-2.99-2.04-5.72-3.94-10.06-2.06-1.4,.61-5.16-2.92-7.12-5.18-5.02-5.8-5.1-5.79-12.27-2.56-2.36,1.06-5.41,.68-8.16,.8-6.92,.3-13.73,.8-18.41,7.01-.69,.91-1.53,1.93-2.53,2.35-7.05,2.94-14.08,5.95-21.28,8.46-2.14,.75-4.85-.28-7.24-.02-2.08,.22-4.63,.53-6.02,1.83-3.1,2.89-6.72,3.67-10.62,4.32-1.53,.26-2.91,1.36-4.82,1.5-2.36,1.08-5.02,1.78-7,3.34-2.29,1.81-4.53,3.37-7.05,1.42-3.97-3.07-7.47-1.54-10.9,.54-2.61,1.59-4.79,2.08-7.81,.62-4.52-2.19-8.27,.45-11.08,3.64-2.26,2.56-3.69,3.77-7.69,2.79-4.17-1.02-9.87-3.14-13.05,2.86-5.89-1.96-9.74,6.11-17.16,2.2-6.57-3.47-15.65-4.9-22.24,2.66-.76,.87-1.88,1.67-2.16,2.68-1.16,4.23-3.92,5.2-8.06,5.67-3.64,.42-7.02,3.88-10.59,4.02-6.91,.28-13.83,3.96-20.96-.07-1.73-.98-5.02,.85-7.61,1.32-1.49,.27-3.12,.87-4.5,.53-4.86-1.19-9.41,3.78-14.29,.6-.12-.08-.34-.07-.48,0-5.48,2.26-10.82,4.92-16.46,6.68-4.49,1.4-9.32,1.69-14,2.5-.99,.17-2.24,.15-2.91,.74-5.87,5.17-13.09,6.42-20.47,7.29-.65,.08-1.5-.29-1.96,0-6.72,4.42-14.14,.55-21.11,1.81-.93,.17-2.14,.2-2.9-.24-4.21-2.46-8.07,.35-11.01,1.93-3.46,1.86-6.47,.8-9.64,1.3-3.22,.51-6.34,1.64-9.49,2.56-.6,.18-1.17,.97-1.67,.9-6.62-.87-13.39,2.9-20-1.32-4.24-2.7-9.11-5.65-13.87-5.99-5.95-.42-10.09-3.24-14.83-5.85-1.79-.99-4.88,.32-7.36,.68-2.21,.32-4.43,1.2-6.6,1.07-6.09-.38-12.19-1.78-18.23-1.52-3.25,.15-6.33,3.05-9.61,4.4-1.41,.58-3.27,.88-4.69,.47-9.58-2.75-18.65-8.47-29.19-5.53-3.21,.9-5.99,3.24-9.04,4.78-3.91,1.97-7.9,3.79-11.86,5.68-.6,.28-1.34,.39-1.8,.82-8.96,8.42-19.12,7.32-29.9,4.41-4.7-1.27-9.88-.8-15.43-1.16,1.31-8.83-5.05-10.06-11.73-11.53-2.45,4.58-6.4,6.55-11.8,5.23-.73-.18-1.79,.02-2.39,.46-5.68,4.08-10.67,4.26-16.58-.49-5.97-4.8-13.5-3.6-20.4-1.55-6.23,1.85-12.3,4.41-18.77,1.51-3.36-1.51-6.34-3.87-9.72-5.29-4.18-1.76-8.68-3.79-11.89,1.97-.53,.96-2.19,1.54-3.43,1.81-3.82,.84-8.05,.71-11.44,2.35-3.83,1.85-7.29,2.55-11.32,1.54-.73-.19-2.17,.3-2.48,.9-2.55,4.91-7.24,4.94-11.48,4.41-9.25-1.16-18.38-3.75-27.64-4.28-5.71-.32-11.57,2.09-17.36,3.27-.17,.6-.34,1.19-.51,1.79-1.02-2.47-2.04-4.95-3.33-8.06-.66,1.19-1.18,2.13-1.63,2.94-.78-1.05-1.74-2.34-3.14-4.22-7.94,11.14-16.25,7.25-24.89,.26-.29,2.01-.49,3.37-.68,4.73-.73-4.28-2.77-5.6-7.09-6.16-3.48-.45-7.4-2.85-9.75-5.57-3.62-4.19-7.35-3.45-11.64-2.43-2.43,.58-5.39,2.2-5.82-2.85-2.63,1.9-4.55,3.29-6.47,4.67-.04-.43-.09-.86-.13-1.29-3.37,.46-6.73,.91-10.1,1.37-9.73,.41-18.96,2.62-28.05,7.44-.68-1.16-1.48-2.55-2.29-3.94-2.96,9.66-11.33,3.4-15.73,6.93-.52,.42-3.14-2.33-5-2.88-3.83-1.14-7.8-1.8-11.73-2.59-.42-.09-1.11,.06-1.36,.35-4.99,6.08-10.57,.85-15.87,.82-.95,0-1.89-.42-2.64-.6-2.14,2.82-4.47,5.23-6.01,8.08-1.6,2.96-3.48,3.06-6.14,1.96-4.39-1.81-9.23-2.41-12.59-6.66-.86-1.09-5.9-.71-7.17,.68-5.37,5.86-12.86,3.8-19.12,6.02-3.85,1.36-8.42,1.64-11.54,3.93-7.83,5.76-15.54,4.89-23.04,.51-4.16-2.43-7.59-1.14-11.27-.05-2.61,.77-4.95,2.52-7.57,3.15-1.46,.35-3.75-.19-4.79-1.21-2.31-2.28-4.33-1.62-7.14-1.22-4.43,.63-9.17,1.77-13.38-2.11-2.92-2.69-6.63-2.96-10.22,.1-4.66,3.97-7.47,2.83-11.53-2.02-3.98-4.76-8.52-11.43-13.65-12.29-7.46-1.25-13.03-6.95-20.47-6.78-3.69,.08-7.7,.31-10.97,1.79-8.82,3.98-14.87-1.75-21.31-5.56-1.96-1.16-3.15-2.81-5.94-3.35-8.76-1.72-17.22-5.25-26.65-3.15-3.23-6.69-9.5-6.25-15.16-5.71-5.73,.54-10.27-.83-14.68-4.31-1.69-1.33-4.34-2.14-6.49-2.03-3.28,.18-3.11,3.31-3.28,5.73-.71,10.13-1.3,20.26-2.13,30.38-.11,1.36-1.45,3.83-1.99,3.76-3.93-.46-6.05,3.23-9.1,3.75-3.39,.58-8.51,.66-10.3-1.34-2.65-2.95-5.56-2.97-8.54-3.96-3.4-1.14-7.03-2.03-9.99-3.91-3.65-2.31-5.98-1.45-7.75,1.85-1.87,3.47-3.94,5.31-7.71,1.84-.7,1.46-1.38,2.43-1.63,3.5-.95,4-3.71,5.78-7.37,4.88-8.06-1.98-12.95,1.34-18.16,7.39-3.28,3.81-5.89,7.11-7.32,11.98-1.71,5.78-7.24,3.2-10.08,1.96-4.23-1.84-6.11-.92-8.58,2.3-.94,1.23-3.5,1.21-5.32,1.76-.29-.52-.59-1.04-.88-1.57-.72,.84-1.56,1.61-2.13,2.54-4.07,6.67-10.35,4.57-16.12,3.92-4.37-.49-8.68-1.54-13.01-2.35-.16-.03-.39-.19-.47-.13-4.82,3.77-10.77,3.14-16.29,4.23-.61,.12-1.09,.75-1.7,1q-6.61,2.78-9.73,7.91c-1.29-.34-2.68-.7-3.92-1.03-5.05,5.57-11.81,2.85-17.63,4.19-6.94,1.6-12.67,.98-18.77-2.8-2.05,3.9-4.25,2.38-6.88,.16-2.26-1.91-5.05-3.19-7.54-4.85-1.77-1.17-3.31-2.73-5.17-3.7-2.98-1.56-6.25-2.59-9.19-4.22-1.37-.76-2.68-2.22-3.27-3.67-1.52-3.75-3.89-4.95-8.03-5.44-5.45-.64-9.89-3.74-12.16-9.51-.58-1.48-5.06-3.19-5.61-2.65-7.22,7.18-13.48,3.46-19.96-1.72-.4,1.4-.67,2.37-.96,3.4-.41-.24-.9-.4-.9-.55,.02-2.46-.22-3.53-3.56-4.18-3.75-.72-6.89-4.31-10.46-6.35-1.59-.91-3.59-1.1-5.41-1.61-2.62-.72-5.88,2.37-8.03-1.33-.09-.15-.65-.17-.92-.06-10.42,4.11-21.99,1.8-32.43,5.76-1.35,.51-2.56,1.4-3.95,2.17Z"/>
</svg>