<?xml version="1.0" encoding="UTF-8"?>
<svg id="Calque_2" data-name="Calque 2" xmlns="http://www.w3.org/2000/svg" viewBox="0 0 1920 524.37">
  <path d="M61.12,406.54c3.66-5.67,9.76-10.34,6.56-18.67-.53-1.39,.87-3.45,.51-5-.95-4.06-1.97-8.2-3.73-11.95-1.86-3.97-.63-7.33,1.39-10.23,5.45-7.87,3.79-16.06,1.96-24.39-.3-1.36-.19-2.82-.57-4.15-1.16-4.15-2.55-8.23-3.66-12.39-.46-1.71-1.1-3.79-.52-5.26,1.26-3.22,.81-4.85-1.96-7.38-2.83-2.58-4.85-6.82-5.63-10.65-.83-4.07,.34-8.51,.4-12.8,.07-4.49,.09-9.01-.36-13.46-.14-1.44-1.77-2.77-2.83-4.06-3.34-4.06-8.67-6.71-9.32-12.65-.16-1.45,.67-3,1.41-5.95-.77-1.8-3.87-4.56-.33-9.18,3.08-4.02-1.15-8.65-1.86-13.04-.61-3.79,.62-5.92,3.49-7.97,4.47-3.2,8.73-6.69,5.6-13.51-1.56-.42-3.45-.92-6.04-1.61,1.1-2.97,2.13-5.78,3.35-9.07-1.05-2.63-7.9-.03-7.4-6.14-5.32-1.69-11.67-11.06-9.44-15.21,2.12-3.94,5.1-7.51,8.11-10.87,5.65-6.3,6.46-11.37,2.68-19.02-.76-1.55-.98-3.37-1.64-5.76,5.12-.62,9.9-.4,14.05-1.92,4.23-1.54,7.84-4.79,11.72-7.3,.64-.42,1.25-1.32,1.86-1.3,6.03,.13,12.07,.26,18.08,.72,3.16,.24,5.47-.15,7.12-3.3,1.57-2.99,3.78-5.64,5.95-8.79,.99,.26,2.55,.66,4.36,1.13l2.05-5.34c4.04,3.66,7.07-.32,9.3-2,2.46-1.86,3.24-5.94,4.94-9.45,1.48,.49,3.96,1.32,6.45,2.15l-.06,1.6c3.8-2.43,7.35-5.87,11.5-6.94,3.07-.8,6.94,1.49,10.03,3.12,4.17-.39,8.35-1.18,12.5-1.05,3.18,.1,6.25,1.41,9.19-1.02,.59-.49,2.08,.16,3.16,.21,.76,.04,1.91,.27,2.21-.12,2.15-2.75,5.67-3.91,7.85-5.88,3.17-2.86,5-1.72,7.15-.32,3.07,2,4.86,3.19,7.73-.96,3.52-5.09,11.53-4.5,17.11,.1,.88,.73,2.1,1.38,3.2,1.45,6.01,.36,11.95,.27,17.42,3.79,3.87,2.49,11.62-.59,12.85-3.8,1.71,.09,3.23-.04,4.64,.29,1.32,.3,2.6,.97,3.76,1.68,3.89,2.39,7.65,5.3,12,.69,.58-.61,1.89-.86,2.82-.77,6.05,.57,12.07,1.36,18.12,1.89,1.55,.14,3.26-.83,4.72-.49,1.78,.41,3.36,1.66,5.03,2.55,2.9-1.32,6.52-2.97,10.14-4.62l.45,.82c1.86-.74,3.89-1.22,5.55-2.28,5.13-3.27,10.12-6.76,15.45-10.35,.73,1.36,1.33,2.46,1.95,3.6,3.64-3.47,7.83-4.28,12.43-3.66,3.46,.47,6.95,2.09,9.58-2.28,.75-1.26,3.77-1.15,5.74-1.68,11.45-3.05,22.91-6.11,34.37-9.14,.45-.12,.96,.03,1.41,.05,.22-1.49,.43-2.91,.64-4.33,1.21,.85,2.35,1.84,3.66,2.53,1.3,.68,2.79,1.56,4.14,1.46,4.16-.32,7.82-.49,11.52,2.63,2.56,2.16,6.61,2.56,9.98,3.76,2.31,.82,4.74,1.41,6.88,2.54,4.13,2.19,7.42,3.54,11.9-.47,2.57-2.3,7.61-1.85,11.45-2.61,2.48,7.49,6.56,10.86,12.81,11.08,7.48,.25,11.34,4.97,12.02,12.74,.84,9.67,2.56,19.26,3.99,28.87,.16,1.05,.93,2.02,2.74,3.27,.7-2.51,1.59-4.98,2.07-7.53,.56-3,.29-6.12,5.21-4.79,1.95,.53,4.61-.52,6.62-1.52,3.17-1.58,5.32-1.22,6.5,2.25,1.09-.9,1.95-1.61,3.36-2.77-.25,6.18,4.2,5.18,7.43,6.01,2.18,.56,4.33,1.23,6.51,1.77,.74,.18,1.7,.41,2.28,.1,6.09-3.28,12.57-2.27,19.05-2.2,5.5,.06,11.37,.22,16.43-1.54,9.11-3.16,18.61-4.23,27.88-6.36,4.16-.96,8.93,.72,13.42,1.22,2.65,.3,5.29,.64,8.58,1.04,.05,.97,.15,2.69,.26,4.62,6.53-1.11,13.07-2.02,19.51-3.41,2.29-.49,4.69-1.73,6.43-3.3,2.69-2.42,4.57-2.84,6.84,.4,.51,.73,2.62,.99,3.66,.59,3.48-1.34,6.81-3.07,9.54-4.34,8.01,3.8,15.81,4.39,23.94,3.51,10.53-1.14,10.54-1.01,21.01-10.87,.76,1.03,1.5,2.02,2.38,3.2l2.93-1.57c2.02,1.14,3.81,2.06,5.51,3.11,6.6,4.07,10.84,3.64,17.09-1.56,.99-.82,2.49-1.14,3.81-1.4,3.08-.62,6.48-.44,9.23-1.72,5.63-2.61,10.75-6.32,16.39-8.91,5.93-2.72,11.45-.32,16.67,2.77,1.34,.79,3.08,2.01,4.32,1.72,7.01-1.67,10.57,3.87,15.33,6.9,.28,.18,.45,.53,.74,.66,6.26,2.82,11.72,6.35,15.25,12.74,1.04,1.88,4.93,2.14,7.45,3.28,3.16,1.43,6.85,2.37,9.26,4.65,4.05,3.82,5.63,4.36,10.59,1.43,.94-.56,2.95-.28,3.94,.4,5.08,3.46,13.58,3.43,17.3-1.59,3.78-5.11,9.21-5.8,14.19-8.06,2.52-1.15,5.94-3.1,6.45-5.28,.95-4.02,2.85-5.69,6.52-6.3,.78-.13,1.48-.9,2.24-.94,12.19-.51,16.32-1.38,26.81-5.5,6.56-2.58,13.42-4.52,19.68-7.68,6.39-3.22,11.94-8.13,18.37-11.24,3.61-1.75,8.33-2.1,12.43-1.73,6.48,.58,12.85,2.42,19.31,3.43,1.86,.29,4.05-1.05,5.77-.55,2.98,.88,5.76,2.53,8.55,4,8.64,4.58,17.04,9.68,25.96,13.64,4.18,1.86,9.33,2.21,14.02,2.11,8.83-.2,17.69-.88,26.45-2.01,7.77-1.01,14.6,3.48,22.19,2.95,5.45-.38,10.9-.74,16.35-1.04,2.37-.13,5.07,.66,7.08-.22,13.85-6.02,28.98-4.99,43.39-7.9,8.64-1.74,18.02-.22,27.03,.44,3.78,.28,7.38,2.63,11.19,3.12,7.75,1.01,15.48-.32,22.73-2.89,3.43-1.22,5.87-4.99,9.14-6.98,5.79-3.52,11.49-5.25,18.36-1.11,5.37,3.23,11.81,4.91,18.32,1.45,1.96-1.04,4.75-1.85,6.74-1.3,8.63,2.42,16.2-1.84,24.24-3.08,2.25-.35,4.71,.87,7.06,.86,3.52-.02,7.05-.72,10.57-.7,2.68,.02,5.35,.72,8.22,1.14,5.79-.95,12.02-1.94,18.25-3,1.27-.22,2.64-.42,3.72-1.05,5.61-3.24,11.73-3.46,17.76-2.44,8.22,1.39,14.96-3.03,22.41-4.63,4.01-.86,8.33-.19,12.5-.43,1.71-.1,3.42-.68,5.08-1.21,1.59-.52,3.07-1.34,4.66-1.87,.74-.24,1.93,.24,2.36-.18,3.6-3.45,5.56-.55,7.49,1.91,2.12,2.71,3.9,3.22,6.54,.4,1.17-1.25,3.5-1.4,5.54-2.13,.87,1.37,1.57,2.65,2.44,3.81,1.92,2.55,4.04,4.01,7.69,4.38,4.98,.5,9.21,3.13,12.16,7.95,1.55,2.53,5.17,3.8,7.87,5.61,1.66,1.11,3.28,2.34,5.05,3.22,2.92,1.46,5.84,3.18,8.96,3.86,2.82,.62,5.91-.03,8.89-.08,8.56-.15,15.53-3.53,22.28-8.87,3.77-2.98,9.6-3.27,14.4-5.04,7.54-2.79,8.86-5.58,7.54-13.65-.34-2.08,.36-4.34,.59-6.51l1.78-.19c-2.19-2.99-5.48-5.72-6.26-9.04-.74-3.14,1.14-6.9,1.79-10.03,11.74-2.9,16.01,5.09,21.18,12.59,4.4-1.35,9.68-2.97,15.47-4.75-.09-.18,.39,.73,.87,1.64,.16-.34,.32-.67,.48-1.01,1.58,.56,3.36,.82,4.71,1.72,3.43,2.27,9.18,.57,10.62-3.37,3.71,5.31,8.87,4.15,13.92-.23,4.67-4.05,6.92-11.95,15.32-11.22,3.93,.34,7.92-.04,11.88-.08,1.83-.02,3.66,0,5.53,.66,3,.19,6.09,.92,8.97,.44,5.86-.97,12.22-1.4,14.83-8.44,.83-2.25,5.98-1.89,8.02-.97,1.78,.81,4.54,.11,6.61-.64,1.07-.39,1.58-2.35,2.49-3.84,.62,1.45,1.05,2.46,1.87,4.39,.59-1.96,.93-3.06,1.22-4.02,3.5-.25,6.92-.49,10.33-.74l.47,1.69c3.7-3.78,7.4-7.56,11.24-11.49,2.63,3.68,5.56,5.63,10.2,5.04,1.88-.24,4.04,1.77,7.12,3.26-.34,.11,.73-.23,2.24-.69v3.64c8.97,4.72,16.71,2.27,24.39-3.62,2.71,.62,5.98,2.01,9.21,1.93,3.68-.09,7.33-1.5,10.91-2.31,.55,1.88,.91,3.09,1.4,4.74,1.64-.97,2.94-1.73,4.69-2.76,.09,2.13,.16,3.6,.28,6.3,1.07-1.85,1.57-2.71,2.41-4.15,.77,2.36,1.39,4.27,2.15,6.61,1.73-1.55,3.28-2.94,5.17-4.64,.09,.93,.16,1.67,.31,3.21,3.73-4.77,8.02-5.33,13.31-3.83,1.46,.41,4.27-2.41,5.85-4.27,3.32-3.89,7.05-4.48,11.11-1.25,.77,.62,1.84,1.65,2.52,1.47,5.41-1.39,7.33,1.7,8.33,6.14,.47,2.08,.92,4.17,1.29,5.85,4.96-.33,9.67-.65,15.28-1.03,.05-.08,.74-1.26,2.12-3.58,.31,3.34,.5,5.4,.7,7.54,1.85-.58,4.62-2.22,5.37-1.57,5.69,5.01,9.91,.18,14.65-1.56,1.04-.38,2.69-.05,3.62,.59,.44,.31-.18,2.12-.3,3.25-.27,2.7-.53,5.41-.93,9.54-2.75,3.99-6.56,9.34-10.15,14.84-.88,1.34-.53,3.69-1.59,4.66-1.51,1.37-4.13,1.49-5.67,2.83-3.3,2.89-5.56,6.16-5.66,11.2-.05,2.83-2.86,6.09-5.24,8.29-4.38,4.05-4.36,9.58,.69,12.23-2.09,2.83-4.18,5.66-6.17,8.35,1.89,4.9,3.61,9.81,5.71,14.55,.68,1.54,2.18,2.92,3.63,3.87,2.28,1.5,3.52,2.77,2.84,5.98-.88,4.17,5.31,11.92,9.6,13.19,1.8,.53,3.52,1.37,4.46,1.75-1.39,4.22-2.53,7.71-4.12,12.53,2.91-.8,4.01-1.11,5.51-1.52-1.27,11.84,5.06,21.31,8.75,31.36,3.01,8.2,8.61,15.44,12.87,23.21,2.4,4.39,5.32,8.66,3.44,14.28-1.6,4.8-2.76,9.77-3.82,14.72-.39,1.82-.4,3.97,.2,5.7,1.34,3.89,.48,6.71-1.79,10.25-2.22,3.46-6.06,5.73-6.53,10.99-.38,4.31-4.31,8.32-6.66,12.46-1.5,2.65-2.98,5.3-4.48,7.95-.08,.14-.29,.28-.28,.4,.33,4.76,.73,9.52,1,14.29,.34,5.95,.5,11.91,.88,17.85,.19,2.92,.72,5.81,1.16,9.14-.9,3.47-1.95,7.71-3.14,11.92-.33,1.17-.85,2.72-1.74,3.16-.81,.4-2.55-.14-3.36-.86-2.67-2.38-5.27-4.88-7.6-7.59-4.48-5.21-9.16-5.27-12.36-1.35-3.93,.78-7.09,2.5-8.82,1.56-6.69-3.62-11.02,4.12-17.07,2.91-1.12-.22-3.05,.89-3.81,1.95-6.59,9.23-17.15,11.03-26.71,14.91-5.14,2.09-10.06,.42-15.02,.92-2.02,.21-4.57,1.41-5.7,3-3.03,4.28-7.71,3.48-11.72,4.79-1.85,.61-3.57,1.64-6.22,2.9-2.62-2.24-5.42-1-8.1,2.77-2.14,3.01-5.44,4.27-8.61,1.57-4.35-3.71-8.38-1.5-12.03,.56-3.59,2.03-6.56,3.14-10.44,.73-2.7-1.67-9.94,.88-12.2,3.76-1.43,1.82-2.81,3.68-3.87,5.06-5.04-.63-9.58-1.24-14.13-1.75-.97-.11-2.53-.24-2.9,.29-3.86,5.46-11.1,3.59-15.75,7.4-1.03,.84-3.37,1.07-4.6,.49-4.38-2.04-8.78-3.32-13.63-2.51-.3,.05-.75,.08-.91-.09-4.13-4.49-7.56-1.89-10.97,1.04-3.16,2.72-7.88,3.79-8.8,8.89-.21,1.18-1.6,2.56-2.78,3.09-5.88,2.63-11.75,2.69-17.63-.37-1.59-.83-3.66-.73-5.51-1.05-2.26-.39-4.59-.56-6.77-1.21-3.96-1.19-7.69-3.11-12.12-2.19-1.52,.31-3.3-.6-5.21-1-3.08,2.88-6.01,2.54-8.85-1.12-.71-.92-1.98-1.49-3.09-2-4.88-2.27-9.73-4.63-14.74-6.59-1.9-.74-4.23-.85-6.29-.61-2.98,.35-6.21,.71-8.78,2.09-5.81,3.13-11.35,2.94-17.13,.28-.85-.39-1.93-.27-3.38-.44,.32-9.8-7.47-9.43-14.04-11.2-3.66,6.57-6.73,13.41-11.08,19.31-2.08,2.83-6.38,4.75-10.01,5.56-5.03,1.11-10.43,.42-15.55,1.25-2.05,.33-4.01,2.44-5.58,4.13-2.36,2.53-4.1,5.24-8.52,4-1.8-.51-4.34,1.14-6.39,2.13-2.15,1.03-4.07,3.37-6.18,3.48-4.22,.22-8.01,.75-11.32,3.63-.66,.58-2.1,.16-3.1,.47-2.18,.67-4.4,1.34-6.44,2.34-1.57,.77-2.78,2.27-4.35,3.07-5.92,3.02-11.75,6.34-17.99,8.49-1.71,.59-5.06-2.16-7-4.05-2.27-2.2-4.05-5-5.64-7.77-3.79-6.6-11.36-5.91-16.92-9.06-3.99-2.26-8.33-3.96-12.19-6.41-4.15-2.64-7.7-6.27-11.96-8.68-2.79-1.58-6.43-1.57-9.6-2.58-7.11-2.26-14.17-4.69-21.24-7.09-9.62-3.27-18.88-8.74-29.58-5.86-3.21,.86-5.98,3.27-9.02,4.85-3.6,1.87-7.32,3.51-10.88,5.45-1.8,.99-3.35,2.43-4.99,3.7-.62,.48-1.09,1.42-1.76,1.56-8.62,1.93-17.06,3.42-25.96,.13-4.46-1.65-9.84-.83-15.31-1.16,1-8.7-4.95-10.31-11.86-11.35-2.27,4.29-6,6.3-11.27,5.01-.88-.21-2.15,0-2.87,.53-5.71,4.12-10.73,4.13-16.58-.55-6.02-4.82-13.51-3.55-20.4-1.5-6.23,1.85-12.31,4.36-18.77,1.44-3.2-1.45-6.06-3.69-9.28-5.06-4.32-1.84-8.92-4.18-12.31,1.83-.54,.95-2.2,1.45-3.44,1.76-3.49,.87-7.09,1.31-10.53,2.31-4.02,1.18-7.81,3.32-12.24,1.57-.6-.24-1.93,.39-2.42,1.01-5.09,6.48-12.21,7.02-19.57,6.84-6.21-.15-12.41-.48-18.62-.57-1-.01-2.31,.53-2.98,1.26-3.79,4.16-7.14,4.67-11.11,.84-3.14-3.03-5.78-6.59-8.72-10.01,.06-.12-.42,.82-.86,1.69-.9-1.21-1.86-2.5-3.24-4.37-7.97,11.52-16.3,6.9-24.94,.37-.18,1.94-.3,3.27-.43,4.64-.56-.12-1.13-.15-1.14-.26-.45-3.14-.31-5.6-5.4-5.49-3.53,.08-7.94-3.06-10.52-6.02-3.7-4.24-7.39-3.47-11.66-2.29-1.22,.34-2.5,.48-3.84,.73-.75-.97-1.53-2-2.46-3.22-2,1.43-3.81,2.72-5.62,4l-.02-1.09c-3.53,.5-7.05,.99-11.41,1.6-1.21-1.48-20.59,2.72-26.56,7.36-1.17-1.12-2.38-2.27-3.92-3.74-1.77,3.47-2.59,8.48-7.8,4.27-.21-.17-1.27,.92-2.02,1.15-2.47,.78-4.62,2.45-7.37-.57-1.52-1.67-5.18-1.41-7.88-1.98-1.55-.32-3.11-.57-4.67-.83-1.04-.18-2.67-.85-3.03-.43-5.13,5.98-10.64,.68-15.93,.66-.79,0-1.58-.42-2.46-.68-2.21,2.96-4.18,5.98-6.57,8.61-.99,1.09-3.19,2.26-4.3,1.87-4.77-1.68-9.96-2.36-13.73-6.65-1.07-1.21-5.89-1.15-7.08,.12-5.65,6.04-13.41,4.16-20.03,6.28-4.21,1.35-8.81,2.27-12.37,4.66-4.72,3.17-9.5,3.56-14.63,2.75-2.01-.32-4.11-1.18-5.79-2.34-6.87-4.77-12.7-.02-18.95,1.64-1.86,.49-4.61,.51-5.93-.54-2.29-1.83-4.09-1.64-6.76-1.24-4.45,.66-9.12,2.04-13.37-1.75-3.16-2.82-6.88-3.17-10.64-.03-4.72,3.93-7.35,2.79-11.51-2.19-3.87-4.64-8.78-8.41-13.23-12.57-.12-.11-.25-.37-.33-.36-7.8,1.6-12.8-6.27-20.14-5.97-3.71,.15-8.01-.2-10.96,1.53-6.81,3.99-11.8-.3-17.17-2.6-2.4-1.03-4.09-3.63-6.35-5.13-1.11-.74-2.82-.53-4.23-.9-8.66-2.29-17.21-5.4-26.58-3.29-3.39-7.08-9.95-6.15-15.72-5.7-5.39,.42-9.6-.89-13.79-4.06-1.84-1.4-4.62-2.4-6.87-2.22-3.54,.28-3.03,3.76-3.21,6.27-.74,9.97-1.31,19.94-2.1,29.91-.1,1.28-1.19,3.6-1.63,3.55-4.41-.44-6.84,3.86-10.47,4.33-3.11,.41-7.91,.12-9.38-1.83-2.51-3.3-5.61-2.95-8.58-3.95-3.09-1.04-6.57-1.59-9.14-3.4-4.04-2.86-6.69-2.27-8.85,1.83-1.7,3.24-3.72,4.64-6.71,1.7-.51,.27-.94,.35-1.06,.58q-4.31,8.14-13.68,7.18c-1.58-.16-3.83-.65-4.67,.16-5.46,5.28-13.11,8.72-14.81,17.27-1.08,5.42-4.4,7.16-11.13,4.24-4.3-1.86-5.98-.98-8.35,2.47-1.19,1.73-4.36,1.96-6.19,3.43-5.11,4.09-11.8,3.71-17.25,6.39-5.56,2.73-16.29,2.42-21.73-.82-2.36-1.41-6.03-.98-9.06-.78-1.86,.13-3.62,2-5.46,2.06-5.31,.17-4.55,4.24-4.82,7.28-.33,3.71-.16,7.52,.23,11.24,.22,2.1,1.5,4.06,1.96,6.16,.58,2.69,.81,5.45,1.15,7.84-4.25,.77-8.06,1.47-11.87,2.15-.32,.06-.76,.14-.98-.02-5.59-4.05-13.1-4.93-17.6-10.8-2.81-3.66-9.02-5.48-13.05-4.23-3.59-3.41-6.76-7.31-10.78-9.89-2.32-1.49-5.51-3.03-9.15-1.44-2.12,.93-5.15,.71-7.5,.04-7.24-2.05-14.24-5.12-21.58-6.65-3.32-.69-7.56,.6-10.76,2.22-5.92,2.98-11.19,7.23-17.1,10.23-3.79,1.92-7.12,5.23-12.68,3.49-2.38-.74-5.94,1.58-9.24-.65-3.49-2.36-8.29-3.26-11-6.19-2.7-2.93-5.41-4.35-8.99-4.97-.46-.08-1.12-.8-1.26-.69-7.5,6.05-13.28-1.38-19.5-2.99-9.47-2.45-18.01-4.23-26.53,2.53-1.87,1.49-5.78,1.06-8.59,.59-7.3-1.23-14.64-2.54-21.7-4.69-4.05-1.24-7.68-4.03-11.32-6.4-4.59-2.99-8.6-7.33-13.57-9.13-6.8-2.46-13.73-6.71-21.76-1.82-3.25,1.98-8.24,2.39-12.08,1.66-2.35-.45-6-4.78-5.65-6.75,1.08-5.99-2.52-10.01-3.88-14.65Z"/>
</svg>