<?xml version="1.0" encoding="UTF-8"?>
<svg id="Calque_1" data-name="Calque 1" xmlns="http://www.w3.org/2000/svg" viewBox="0 0 1920 524.37">
  <path d="M0,126.2c1.79-.7,3.55-1.52,5.38-2.09,4.93-1.53,9.34,.73,13.89,2.03,1.44,.41,3.45,2.35,3.87-1.32,.04-.36,4.43-.97,6.34-.24,8.84,3.36,18.21,6.06,26.08,11.06,9.62,6.11,20.8,3.76,30.65,7.94,3.83,1.62,8.81,.4,13.23,.78,4.54,.39,9.05,1.15,14.66,1.9,4.4-4.34,10.63-5.15,17.9-2.58,1.84,.65,4.59-1.44,6.97-2.1,3.13-.88,6.3-1.63,9.48-2.37,2.92-.68,5.85-1.39,8.81-1.86,3.07-.48,6.18-.67,9.41-1.01,.1-.56,.3-1.65,.55-3.03,1.92,.85,3.59,1.59,5.88,2.61l-.72-2.25c5.1-.46,10.21-.84,15.29-1.47,.82-.1,1.39-1.56,2.27-2.01,4.13-2.14,8.48-2.72,13.17-2.32,2.81,.24,5.76-.7,8.58-1.35,2.06-.48,4.02-1.97,6.02-1.96,6.34,.04,9.64-4.3,13.05-8.13,3.37,1.63,6.85,2.96,9.91,4.93,1.77,1.14,1.47,1.6,3.04-.44,3.65,5.65,8.59,1.88,13.37,2.15-.19-1.43-.34-2.51-.32-2.39,3.08-1.25,5.79-2.34,7.29-2.95,2.79-.52,4.44-.96,6.12-1.11,2.49-.22,5.02-.11,7.5-.38,3.1-.33,6.39-.36,9.21-1.49,3.96-1.6,7.59-4.05,11.31-6.22,4.66-2.72,8.37-6.88,14.32-7.65,3.24-.42,6.21-2.89,10.01-4.79,.18-.26,.77-2.1,1.83-2.42,6.36-1.95,12.8-3.71,19.28-5.22,4.16-.97,8.47-1.32,12.68-2.12,.96-.18,1.82-1.04,2.67-1.66,1.96-1.44,3.87-2.95,5.82-4.4,.23-.17,.81-.09,.87-.24,2.92-8.84,5.57,.03,8.4,.06,2.24-2.03,3.13-7.45,8.07-3.38,.06,.05,.78-.69,1.2-1.07,3.39-3.1,6.79-6.21,10.08-9.22,2.29,3.38,5.34,7.89,7.65,11.3h8.6c.17-.74,.47-2.04,.86-3.71,5.12,4.36,8.4-.88,11.25-2.55,4.21-2.47,6.9-7.52,11.12-12.51,3.53,2.98,7.32,6.19,11.14,9.37,.43,.36,1.45,.81,1.51,.72,2.52-3.45,4.84,.71,7.28,.18,2.27-.5,4.6-.72,6.9-1.06,2-.29,4.26-1.28,5.97-.68,3.53,1.23,5.21-1.18,6.13-3.16,2.3-4.99,5.03-9.32,9.76-12.41,2.12-1.38,5.63-1.74,5.55-5.52,0-.35,.64-1.06,.9-1.02,6.16,.86,11.71-5.38,18.25-1.41,1.45,.88,3.81,.22,5.75,.33,1.25,.08,2.94-.18,3.64,.51,2.81,2.75,4.41,1.8,5.12-.77,4.72,.43,9.67,2.35,12.96,.79,3.37-1.61,6.03-2.48,9.41-1.51,1.92,.55,3.77,1.31,5.95,2.09,1.72-1.84,6.91-1.39,9.41,.93,3.39,3.14,7.26,5.76,10.68,8.87,4.12,3.75,9.09,2.18,13.74,2.71,1.16,.13,2.28,.69,3.87,1.19-.21-1.15-.41-2.18-.47-2.51,12.04,3.2,23.63,7.79,32.71,17.14,.51-.38,1.02-.75,1.52-1.13-.97-1.72-1.94-3.45-3.57-6.34,4.82,1.62,8.69,3.43,12.74,4.17,5.57,1.01,5.2,6.22,7.72,9.84,4.24-1.33,8.54-3.97,12.61-3.65,5.29,.42,10.27-2.23,16.25,.77,4.63,2.33,11.6,.36,17.23,3.3,2.11,1.1,4.98,.72,7.49,1.11,4.6,.71,8.64-.61,11.78-3.87,4.02-4.19,8.89-4.64,14.22-4.36,1.49,.08,3.01-1.21,4.57-1.38,2.74-.29,5.84-1.04,8.21-.11,5.09,2,9.74,1.77,14.73-.04,1.26-.46,3.14,1.19,4.75,1.22,8.84,.16,17.7-.25,26.5,.33,3.63,.24,7.09,2.57,10.7,3.74,2.23,.72,4.61,.99,6.9,1.57,2.36,.6,4.7,1.27,7.01,2.01,.89,.29,1.9,1.46,2.5,1.24,7.35-2.67,11.43,4.96,18.07,5.59,6.23,.59,12.76,3.45,18.05,6.98,4.64,3.09,7.89,4.53,12.47,.68,.5-.42,2.96,1.48,4.66,2.39,.08-.46,.22-1.3,.33-1.95,3.4,2.26,7.1,4.23,10.08,7.22-.13-.89-.25-1.78-.38-2.69,6.25,3.02,12.44-2.98,19.07,1.05,4.38,2.66,10.72,2.09,16.4,3-.4-1.12-.86-2.37-1.31-3.62,.48-.36,.95-.71,1.43-1.07,1.37,1.76,3.35,3.34,3.97,5.33,.99,3.22,2.23,5.58,7.29,6.14-2.12-2.98-3.63-5.1-5.71-8.01,1.28,.76,1.97,.98,2.39,1.45,2.85,3.11,5.7,5.07,9.85,1.73,.92-.74,3.63-.68,4.44,.11,3.87,3.77,6.78,1.54,9.49-1.21,3.67-3.72,4.45-3.75,7.52,.56,.86,1.21,1.67,2.45,2.65,3.56,.72,.82,1.67,1.44,2.98,2.54v-2.97c2.53,2.1,5.58,3.62,7.09,6.09,3.15,5.12,8.43,6.57,13.23,7.33,8.09,1.27,16.44,1.36,24.65,1.04,3.78-.15,8.15,.35,11.53-3.01,1.12-1.12,3.78-1.37,5.54-1.03,4.11,.81,8.33,1.18,12.31,1.94,5.9,1.13,9.22-5.03,14.75-3.45,1.65,.47,3.64-.25,6.63-.53,.05,.04,1.1,.95,2.45,2.11,2.62-6.65,8.18-3.55,12.1-3.3,3.15,.2,5.26,.39,7.1-2.17,1.98-2.77,4.5-3.25,7.79-2.61,7.12,1.38,14.13,1.9,21.37-.63,2.51-.88,6.27,1.48,9.34,2.67,1.63,.63,3.01,1.93,4.46,2.9,4.08-4.48,6.94-4.63,10.56-.56,.14-.85,.27-1.58,.53-3.13,1.53,1.43,2.72,2.55,4.45,4.17,1.16-1.63,2.26-3.18,3.38-4.75,4.21,2.43,9.98,3.98,14.35,1.7,4.42-2.3,11.32-2.36,13.21-9.87,3.1-.42,6.9-.94,10.95-1.48-.5-1.02-1.15-2.35-1.88-3.85,1.1,.3,2.01,.55,3.42,.93-.27-1.47-.48-2.6-.86-4.63,1.76,2.02,2.93,3.37,4.46,5.12v-2.28c8.41-1.03,16.67-2.04,24.93-3.05l.71-1.44c-1.87-2.06-3.75-4.13-6.11-6.74,.04-5.89,.94-6.85,7.78-9.16,1.73-.58,2.95-2.53,4.58-3.57,1.36-.86,2.99-1.29,5.07-2.15-.9-5.02,5.19-1.07,7.05-3.58,2.43,4.23,7.78,5.83,10.63,2.55,2.96-3.4,6.81-4.25,10.35-6.09,9.23-4.77,18.44-9.59,27.42-14.94,2.46,.35,3.04,6.14,8.05,3.06-1.66-3.67-.89-6.01,4.04-5.67-.29-1.46-.57-2.84-.95-4.72,1.84-.81,3.82-1.68,5.79-2.54,1.84-.81,4.78-1.2,5.3-2.52,1.47-3.81,1.96-8,2.74-11.61,2.63-.16,4.83-.68,6.84-.28,1.23,.25,2.51,1.74,3.19,2.99,2.98,5.53,6.34,10.34,13.55,10.36,.78,0,1.52,1.11,2.33,1.62,2.2,1.37,4.43,2.69,6.64,4.05,.41,.25,.95,.52,1.11,.91,2.99,7.42,10.93,5.88,16.28,9,1.9,1.11,4.02,1.89,6.13,2.54,.68,.21,1.64-.5,1.85-.57,1.64,.52,3.09,1.01,4.58,1.43,.38,.11,1.06-.23,1.22-.04,2.87,3.42,6.24,6.59,8.33,10.44,2.06,3.79,6.41,6.2,8.47,4.74,4.19,2.3,7.73,4.9,11.69,6.25,5.31,1.82,11.66,.8,15.64,6.12,.32,.43,1.25,.38,1.87,.62,3.17,1.25,6.68,2.03,9.43,3.91,5.04,3.45,10.32,3.22,15.84,2.42,.9-.13,1.93-.65,2.68-.38,4.88,1.72,9.7,3.6,15.3,5.72,.99-2.64,1.93-5.18,2.77-7.42,3.04,4.47,4.21,5.33,9.63,.65,5.79-4.98,10.78-11.29,18.84-13.07,.63-.14,1.54-.34,1.77-.79,3.68-7.26,12.36-6.9,17.73-11.62,1.31-1.15,3.53-1.26,6.22-2.13,4.35-6.7,11.74-9.99,20.7-10.67,2.71-.21,5.34-1.52,8.05-1.68,4.75-.29,9.53-.08,15.36-.08-1.34-2.64-2.33-4.58-3.2-6.29,3.02,.68,6.6,1.48,10.19,2.27,.14-.29,.29-.57,.43-.86-.86-.95-1.71-1.89-2.57-2.84,.18-.23,.36-.45,.54-.68,3.47,2.69,6.94,5.37,11.71,9.05,2.87-2.55,6.46-5.82,10.17-8.97,.42-.36,1.58-.27,2.14,.05,2.38,1.36,4.77,2.68,5.93,5.51,.26,.64,1.86,1.08,2.81,1.04,3.39-.15,8.08,.74,9.89-1.11,3.87-3.93,5.42,.13,7.89,.98,.34,.12,.51,.72,.01-.04,2.97,0,5.03,.07,7.09-.02,2.09-.09,4.18-.34,6.84-.57,0-.06,.12-1.13,.23-2.21,10.81-1.82,14.32,7.47,19.85,14.05,.78-1.63,.96-2.92,1.6-3.22,3.98-1.86,8.02-3.6,12.14-5.15,1.41-.53,3.45-1.05,4.55-.42,4.12,2.35,8.25,.84,12.37,.61,.69-.04,1.38-.83,1.99-1.37,2.86-2.53,5.62-1.11,8.51,0,1.02,.39,2.42-.23,3.49,.1,7.48,2.25,12.65-5.08,19.7-4.69,.7,.04,1.52-1.1,2.19-1.79,3.29-3.39,6.54-6.82,9.76-10.18,7.7,5.27,9.04,4.87,16.01-1.97,3.24-3.18,6.98-6.34,11.1-8.02,5.47-2.23,3.23-7.16,4.9-9.48,3.9-1.14,7.35-2.15,11.48-3.36,1.01,.76,3.04,2.11,4.85,3.71,2.72,2.4,5.04,3.21,8.56,.81,1.23-.84,4.25,.4,5.78-1.85,.52-.76,1.1-1.47,1.66-2.2-.29-.32-.59-.63-.88-.95h7.9c1.38-3.19,4.17-3.08,7.64-2.94,1.41,.06,4.01,1.54,6.04-1.47,1.3-1.94,5.85-1.52,8.78-2.6,1.54-.57,2.73-2.09,4.41-3.44,4.84,.62,10.44,1.7,16.09,1.97,8.35,.4,14.07,4.11,18.42,11.27,2.56,4.21,4.8,9.51,10.89,10.31,.78,.1,1.57,.17,2.34,.33,2.92,.61,5.83,1.26,9.48,2.06,1.21-2.25,3.23-.87,6.11,.61,3.79,1.94,8.29,2.42,12.28,4.04,5.03,2.04,9.84,4.6,15.01,7.05,2.05-1.37,3.19-6.9,7.79-2.59,.82-.98,1.65-1.97,2.78-3.32,3.18,4.37,4.98,2.12,6.34-.39,1.32,0,2.36,.02,3.4,0,1.2-.03,2.4-.09,3.6-.14V323.21c-1.42-1.04-2.83-2.09-4.27-3.15-2.78,3.14-5.36,6.05-7.3,8.24-2.58-.66-4.27-1.08-6.43-1.63,0-.66,.13-1.99-.03-3.29-.28-2.34-7.13-6.57-8.25-5.04-2.26,3.09-4.2,.79-6.19,.44-2.1-.36-4.09-1.29-6.18-1.74-1.66-.36-4.51-1.06-4.91-.42-2.64,4.25-7.24,1.8-9.4,1.41-7.01-1.29-13.65-4.57-20.45-7.06-.42-.15-1.08-.2-1.42,.02-4.04,2.7-7.51,1.42-10.65-1.59-2.32,2.16-4.49,4.18-6.79,6.33-.55-1.11-1.25-2.55-2.01-4.08-.7,.51-1.15,1.11-1.68,1.19-5.36,.84-10.74,1.58-16.1,2.4-.91,.14-1.84,.95-2.66,.82-6.34-.97-12.66-2.04-18.97-3.18-6.14-1.11-11.45,1.57-15.71,3.08-1.75-1.69-3.06-2.74-4.12-4-2.54-3-5.64-4-9.42-3.01-2.35-5.32-6.29-2.56-9.81-1.58-1.42-7.76-7.38,.58-9.32-3.01-2.5,1.05-2.55,5.73-6.78,3.05-.22,1.29-.43,2.5-.46,2.66-2.46,.3-4.56,.48-6.64,.82-4.28,.69-8.19,1.19-11.75,4.89-2.7,2.81-7.85,3.26-12.02,4.8-1.01-2.45-2.01-4.89-3.27-7.94-1.42,2.43-2.53,4.33-3.25,5.56-3.58,1.75-8.25,2.52-9.25,4.86-1.79,4.19-4.56,2.77-7.18,3.15,.04,.91,.08,1.82,.12,2.73-.94-.06-2.58,.14-2.72-.24-1.51-3.97-4.29-3.33-7.57-2.81-2.22,.36-4.64-.55-6.97-.9l.84,.97c-1.46,1.21-2.89,2.46-4.38,3.63-3.58,2.8-7.14,5.64-10.81,8.32-1.51,1.1-3.29,1.82-4.95,2.72l-.08,.25c-3.47,1.5-6.94,2.99-10.46,4.51-.23-.62-.46-1.22-.78-2.08-1.16,.84-2.28,1.5-3.22,2.35-3.28,3.01-6.32,6.33-9.83,9.03-1.31,1.01-3.82,.29-5.53,.99-3.82,1.54-7.94,.82-12.03,2.85-2.85,1.42-7.91,4.92-12.3,1.17-.24-.2-.62-.34-.93-.32-1.77,.12-3.53,.29-5.84,.5-1.04,4.72-2.26,10.25-3.69,16.74-4.88-5.73-10.07-9.12-16.85-4.28-.12-.49-.31-1.22-.63-2.49-1.97,2.6-3.53,4.65-4.8,6.33-1.23-1.55-2.04-3.42-2.86-3.42-1.86-.01-3.73,.89-5.86,1.5-.13-.24-.66-1.23-1.48-2.73-4.23,7.07-8.1,13.54-12.15,20.31,.2,.07-.78-.25-2.38-.76-.23,3.73-.42,6.95-.65,10.73-1.7-2.02-3.15-3.73-4.18-4.96-1.22,1.57-2.91,4.36-3.3,4.18-6.29-2.76-5.18,3.43-7.12,5.73-3.64,4.32-7.43,8.15-13.71,5.22-1.93-.9-3.61-2.32-5.13-3.32-.44,1.63-1.09,4.01-1.74,6.43-1.72-2.17-3.18-4-5.14-6.46-.98,3.9-1.73,6.89-2.55,10.15-3.63-3.37-4.39,.45-5.86,2.94-.57-1.41-.9-2.21-1.4-3.44-1.17,2.33-2.16,4.28-2.83,5.61-2.59-.68-5.61-2.5-7.27-1.65-1.94,1-2.7,4.31-4.31,7.22-4.42-.97-6.17,11.26-13.85,4.34-.61,1.05-1.33,2.28-1.95,3.35-1.19-.77-2.32-1.51-3.29-2.15-.76,2.96-1.28,7.21-1.94,7.23-4.62,.14-5.49,3.81-7.56,6.54-.95,1.26-2.88,1.77-4.81,2.88v-5.43c-1.33,1.18-2.07,1.83-3.44,3.04-.45-.75-.71-1.82-1.32-2.09-2.97-1.32-6.2-3.71-9.01-3.33-4.88,.65-8.04,4.19-9.06,9.52-.61,3.17-2.64,5.39-6.16,2.67q-7.12,10.5-13.74,11.87c-2.18-5.75-11.4-6.24-19.52-1.55-1.57-.76-3.21-1-3.61-1.84-1.28-2.69-7.01-4.67-9.91-3.96-3.25,.79-7.57,1.9-9.96,.45-3.37-2.05-5.87-2.82-9.73-1.91-2.51,.59-5.76,1.43-8.36-.96-.5-.46-1.9-.28-2.74,.02-3.29,1.18-6.65,3.37-8.87-1.57-.16-.36-1.08-.4-1.66-.55-3.52-.88-7.04-1.76-10.57-2.59-.63-.15-1.46-.31-1.97-.03-5.29,2.88-10.83,3.77-16.88,3.49-6.43-.3-13.21-1.96-18.97,3.18-1.18,1.06-4.39,1.4-5.63,.55-3.39-2.31-4.24-.44-5.1,2.17-.4,1.19-.7,2.41-1.04,3.62l-.76-.02c-.1-.71-.19-1.43-.3-2.23-3.82,1.3-7.53,2.57-11.37,3.88-2.03-2.44-4.49-5.39-6.92-8.32-5.25,4.03-8.88,9.14-14.38,9.76-3.93-2.17-7.34-4.06-11.2-6.19-.35,2.24-.55,3.52-.74,4.8-3.71-.8-7.54,1.12-8.09,4.86-.52,3.53-2.86,3.82-5.06,3.46-1.87-.31-3.51-1.98-5.18-3.01-2.92,1.71-5.19,5.34-9.45,2.85-.2-.12-1.51,1.39-2.11,2.28-1.65,2.45-3.21,4.96-5.45,8.47-.2-3.49-.32-5.49-.43-7.48-.59-.22-1.18-.45-1.78-.67-1.11,1.66-2.65,3.18-3.24,5.01-1.59,4.98-3.3,9.75-7.5,13.28-1.5,1.26-2.72,2.92-3.79,4.59-1.87,2.91-3.88,3.03-6.4,.86,7.33-7.34,7.67-8.78,2.71-13.94-.96,1.63-1.82,3.08-2.64,4.47-3.6-2.59-6.75-1.22-8.34,3.68-2.14,6.55-12.31,10.78-18.06,7.51-2.92,3.33-13.72,7.19-16.75,6.41-3.09-.79-6.47-1.83-9.47-1.31-7.19,1.25-14.22,3.34-21.66,5.18-2.08-5.74-5.76-1.6-8.93-.97-1.37-1.03-2.94-2.1-4.38-1.96-2.37,.24-4.73,1.09-6.95,2.03-1.96,.83-3.72,3-5.59,3.03-3.63,.06-7.28-1.45-10.92-1.42-4.11,.03-8.28,.74-12.29,1.69-4.66,1.1-11.91-1.79-12.06-6.04-.2-5.85-3.19-3.04-5.63-2.59-2.46-4.65-5.32-5.1-9.27-1.09-.42-1.7-.79-3.17-1.02-4.08-3.49-.58-6.57-1.27-9.68-1.5-1.01-.07-2.79,.83-3.06,1.67-1.73,5.28-6.33,6.17-10.35,8.02l-.7-1.21c1.68-.82,3.37-1.65,4.23-2.07-1.7-2.04-3.21-3.96-4.84-5.76-.75-.83-1.72-1.48-2.63-2.16-1.4-1.04-2.94-1.93-4.25-3.08-3.05-2.69-5.57-6.3-10.41-5.74-.52,3.76-3.22,5.28-6.47,3.96-.86-.35-1.99-1.01-2.66-.73-4.29,1.78-9.17,3.01-12.53,5.94-3.23,2.83-3.97,.96-5.5-.91,.93-1.06,2.46-2.01,2.67-3.19,1.26-7.18-.51-14.01-3.92-20.22-2.31-4.2-5.68-7.81-8.64-11.76-1.1,.7-2.43,1.54-3.97,2.51,.62-2.68,1.16-5.05,1.71-7.43-.38-.07-.75-.14-1.13-.21-.73,.77-1.47,1.54-2.2,2.32,1.6-4.84-.77-5.9-4.66-5.74q-3.38,7.73-15.77,8.4c0-.94,0-1.88,0-2.94-2.7,1.02-5.18,1.96-7.07,2.68-1.36-.64-2.91-1.85-3.39-1.52-1.99,1.39-4.83,.25-5.82,.86-6.04,3.7-8.6-3.61-13.29-3.64-1.37,0-2.73-.88-4.07-1.35-2.34-2.52-4.94-5.32-6.82-7.34-2.98,1.85-5.41,3.35-7.84,4.85-.05-.61-.1-1.22-.15-1.83-1.3-.61-2.73-1.04-3.88-1.87-1.7-1.22-3.2-2.71-4.79-4.09-1.14,1.56-2.16,2.96-3.17,4.36-.89-1.45-.92-2.44-.89-3.42,.1-3.42-.77-4.99-4.63-3.28-3.41,1.51-11.83-1.15-14.2-3.91-.84-.98-2.04-2.75-2.7-2.59-3.92,.95-8.14,1.71-11.47,3.79-3.96,2.46-7.28,2.38-9.24-1.69-.35-.73-.9-1.42-1.49-1.96-1.46-1.34-3.01-2.58-5.1-4.35-3.62,2.57-8.39,5.34-13.5,.37-.09-.09-.33-.15-.45-.09-4.05,1.86-5.21-.77-6.53-3.82-.43-.99-2.27-1.71-3.55-1.89-1.36-.19-2.84,.42-3.79,.59-.39-1.78-.26-3.94-1.09-4.42-1.99-1.14-4.4-1.88-6.7-2.06-2.33-.18-4.72,.52-7.58,.89-.02,.02-.55,1.09-1.4,1.49-.37,.18-1.39-.99-1.84-1.33-3.13,2.61-6.19,5.17-9.06,7.56-1.8-2.11-3.14-3.68-4.48-5.25-.26,.57-.53,1.14-.79,1.71-2.38,0-4.77-.11-7.14,.02-4.21,.23-8.41,.89-12.61,.83-2.7-.04-5.38-1.05-8.94-1.81-6.66,4.75-13.76,3.35-19.24-1.88-2.59,.87-4.77,2.32-5.63,1.76-2.71-1.78-4.11,.07-6.13,1.04-2.15,1.03-2.4,3.51-5.15,4.49-4.85,1.72-9.42-.07-14,.66-5.03,.8-11.37,.43-14.66,3.36-4.06,3.62-6.73,2.47-10.43,1.08-.4,1.24-.81,2.46-1.2,3.7-.86,2.7-1.37,4.82-5.18,2.29-2.15-1.42-5.42-.76-7.52,2.35-2.14,3.18-4.74,6.29-7.8,8.55-2.55,1.89-6.04,2.5-9.84,3.96-.05,.12-.58,1.31-1.18,2.67-1.32-.84-2.43-1.55-3.54-2.26-2.37,4.82-8.57,7.23-12.3,5.47-1.46,1.64-2.84,4.38-4.04,4.31-2.93-.18-5.79-1.67-8.67-2.64-.32-.65-1.26,.51-1.81,.35-3.8-1.11-7.53-2.48-11.27-3.78-3.56-1.25-7.18-.45-8.85,3.05-1.97,4.13-5.02,4.58-9.11,4.12,.29,3.77-.27,6.64-4.44,8.59-2.8,1.31-4.91,4.74-6.57,7.65-2.39,4.17-7.67,5.93-11.62,3.23-3.06-2.1-10.01-1.25-12.39,1.28-1.2,1.27-2.73,2.35-4.31,3.08-1.21,.56-2.79,.27-4.11,.67-2.87,.86-5.68,1.91-9.11,3.08l.62-3.18c-7.57-5.14-12.01,2.03-18.18,4.35,1.65-8.71-7.66-6.11-9.13-9.65-6.15,2.71-12.01,5.3-18.69,8.24,.19-2.74,.28-3.91,.47-6.64-2.89,2.49-4.52,4.97-6.67,5.55-5.04,1.35-2.87-3.36-3.57-6.14-5,4.78-9.83,4.33-14.99,1.38-1.02-.58-3.54-.32-4.14,.48-2.84,3.79-6.63,4.42-10.98,4.82-3.42,.32-7.33,1.17-9.93,3.19-3.28,2.54-5.38,6.56-8.13,9.82-.92,1.09-2.29,1.8-3.46,2.69-.32-.4-.63-.79-.95-1.19,.58-1.12,1.17-2.24,1.75-3.36-.53-.27-1.07-.55-1.6-.82-.49,.95-1.1,1.86-1.44,2.87-.94,2.78-1.68,5.81-5.69,4.64-4.3-1.25-5.43,1.23-5.99,5.25-1.49-.94-2.72-1.89-4.1-2.52-1.06-.48-2.33-.84-3.45-.7-.71,.09-1.29,1.18-1.92,1.82,0-1.28-.23-2.62,.08-3.82,.36-1.39,1.22-2.64,1.81-3.98,.04-.1-.31-.37-.58-.69-1.06,.68-2.14,1.37-3.43,2.2-.21-1.63-.38-2.98-.55-4.33-.41-.22-.81-.45-1.22-.67-1.54,1.83-3.08,3.66-4.93,5.86-.42-1.26-.78-2.34-1-2.97-2.02,1.1-4.88,3.15-5.25,2.77-3.16-3.24-4.55-.96-6.1,1.47-.09,.14-.59,.02-1.16,.02,.1-.86,.2-1.67,.23-1.93-5.79,.42-11.5,.68-17.16,1.35-1.5,.18-3.49,1.28-4.14,2.53-2.02,3.88-5.16,5.52-9.24,5.92-4.18,.41-8.37,.87-12.56,1.15-3.65,.25-7.37,.73-10.98,.34-6.38-.69-12.7-1.9-19.02-3.05-2.59-.47-5.12-1.3-7.67-2-2.14-.59-4.28-1.2-6.41-1.85-3.3-1-7.62-1.09-9.63-3.29-2.51-2.73-4.26-3.14-7.52-2.34-2.33,.57-5.05,.27-7.44-.29-5.77-1.35-5.7-8.48-10.56-11.08-.88,1.04-1.78,2.1-2.96,3.5-.38-1.17-.61-1.89-.84-2.62-3.47,1.57-4.24-.29-4.25-3.27,0-.34-.58-.93-.95-.98-3.59-.5-7.19-.9-11.09-1.37-1.36-1.49-2.35-5.12-6.99-1.77l1.4-3.31c-3.5-.57-6.73-1.1-9.69-1.59-1.86-1.34-3.68-3.61-5.81-3.96-3.96-.65-8.11-.19-11.58-.19-2.13-1.75-4.09-3.35-6.53-5.35,0,.05,.23-2.46-.04-2.51-2.45-.49-4.99-.56-7.69-.76-.89-8.31-8.36-.41-11.87-3.94-.1-1.17-.22-2.72-.43-5.3-1.62,2.4-2.67,3.95-3.06,4.53-3.04-.75-5.64-2.12-8.05-1.83-5.74,.68-11.37,2.31-17.09,3.2-1.7,.26-3.61-.57-5.37-1.1-3.45-1.03-6.86-2.19-11.05-3.54-.22-.22-1.24-2.14-2.58-2.41-5.88-1.19-11.46,.67-17.04,2.34-2.24,.67-4.62,.85-7.41,1.33,.75-1.38,1.1-2.03,1.7-3.12-2.24-.11-4.26-.79-5.72-.17-4.51,1.93-9.54,1.35-12.36-1.3-3.43-3.23-7.57-2.93-11.07-4.86-.72-.4-2.03-.94-2-1.31,.36-3.71-3.26-3.17-4.52-3.23-4.72-.23-9.13-4.64-14.1-1.24C0,344.88,0,235.54,0,126.2Z"/>
</svg>